<svg id="Ebene_1" data-name="Ebene 1" xmlns="http://www.w3.org/2000/svg" viewBox="0 0 382.54 274.43"><defs><style>.cls-1,.cls-3,.cls-4{fill:#1d1d1b;}.cls-2{fill:none;stroke:#1d1d1b;stroke-miterlimit:10;stroke-width:8px;}.cls-3,.cls-4{font-size:40.41px;font-family:BonnBookCaps, Bonn BookCaps;}.cls-3{letter-spacing:-0.02em;}.cls-4{letter-spacing:-0.02em;}</style></defs><title>jvp14</title><path class="cls-1" d="M585,267.43h-8a15.55,15.55,0,0,1,.47,8H585a26,26,0,0,1,26,26v63.48a26.06,26.06,0,0,1-24.16,25.91l-4.78.34,11.3,44.13L509,390.93H381.84a26,26,0,0,1-26-26V348.46a6,6,0,0,1-.95,1.41,5,5,0,0,1-7.05,0v15a34.05,34.05,0,0,0,34,34H507l98.56,51.84-13.48-52.62A34.11,34.11,0,0,0,619,364.92V301.44A34,34,0,0,0,585,267.43Z" transform="translate(-236.44 -176.34)"/><path class="cls-2" d="M536.67,180.34H278.56a38.13,38.13,0,0,0-38.12,38.13v80.67a38.1,38.1,0,0,0,35.42,38l-15.69,61.25,116.22-61.12H536.67a38.12,38.12,0,0,0,38.13-38.13V218.47A38.13,38.13,0,0,0,536.67,180.34Z" transform="translate(-236.44 -176.34)"/><path class="cls-1" d="M282.29,213.62H300.6v23.06c0,9.24-6.13,16.93-16.62,16.93a16.32,16.32,0,0,1-14.25-7.5l-.56-1.12,7.56-5.19.81,1.06a7.29,7.29,0,0,0,6.19,3.5c4,0,7.24-2.19,7.24-8.56V222.87h-8.68Z" transform="translate(-236.44 -176.34)"/><path class="cls-1" d="M305.34,213.62h9.56v21.56c0,6.06,3.56,9.18,8,9.18s8-3.12,8-9.18V213.62h9.62v23c0,9.13-7.12,17-17.62,17s-17.56-7.87-17.56-17Z" transform="translate(-236.44 -176.34)"/><path class="cls-1" d="M355.82,252.86h-9.56V210.81l23.44,23.12V213.62h9.56v42l-23.44-23.12Z" transform="translate(-236.44 -176.34)"/><path class="cls-1" d="M413.68,226.8a10.26,10.26,0,0,0-8.75-4.68,11.12,11.12,0,0,0,0,22.24,10.66,10.66,0,0,0,9.5-5.19h-11v-9.3h22.44v4.56c0,6.56-5.88,19.18-20.94,19.18-11.62,0-20.93-8.87-20.93-20.37s9.31-20.37,20.93-20.37a20.81,20.81,0,0,1,16.63,8.06Z" transform="translate(-236.44 -176.34)"/><path class="cls-1" d="M430.92,213.62h31.93v9.25h-22.3v5.31h18.18v9.25H440.55v6.18h22.3v9.25H430.92Z" transform="translate(-236.44 -176.34)"/><path class="cls-1" d="M292.79,306.41c-11.63,0-20.94-8.87-20.94-20.37s9.31-20.37,20.94-20.37,20.93,8.87,20.93,20.37S304.41,306.41,292.79,306.41Zm0-31.49a11.12,11.12,0,1,0,11,11.12A11.24,11.24,0,0,0,292.79,274.92Zm-.57-13.13a3.56,3.56,0,1,1-3.56-3.56A3.62,3.62,0,0,1,292.22,261.79Zm8.25,0a3.59,3.59,0,1,1-3.62-3.56A3.63,3.63,0,0,1,300.47,261.79Z" transform="translate(-236.44 -176.34)"/><path class="cls-1" d="M312.15,266.42h10.44l7.87,19.74,7.81-19.74h10.44L330.46,308.6Z" transform="translate(-236.44 -176.34)"/><path class="cls-1" d="M351.14,266.42h19.93c8.75,0,14.5,6.06,14.5,13.87s-5.75,13.93-14.5,13.93H360.76v11.44h-9.62ZM376,280.29c0-2.56-1.25-4.62-5.44-4.62h-9.75V285h9.75C374.7,285,376,282.91,376,280.29Z" transform="translate(-236.44 -176.34)"/><text class="cls-3" transform="translate(162.82 129.18)">WIEN</text><text class="cls-4" transform="translate(263.98 129.18)">14.</text></svg>